<svg xmlns="http://www.w3.org/2000/svg" width="159.47mm" height="41.23mm" viewBox="0 0 452.04 116.87">
  <path d="M281.45,147.8h41.3a5.16,5.16,0,0,0,5.16-5.16V85.86a5.07,5.07,0,0,0-2.38-4.24,59.33,59.33,0,0,0-49.24,58.44c0,1.16.11,2.29.17,3.44A5.11,5.11,0,0,0,281.45,147.8Z" transform="translate(-149.68 -81.62)" style="fill: #067854"/>
  <path d="M345.77,81.62a5.06,5.06,0,0,0-2.38,4.23v25.81a5.16,5.16,0,0,0,5.16,5.16h41.3c.14,0,.26-.07.39-.08A59.38,59.38,0,0,0,345.77,81.62Z" transform="translate(-149.68 -81.62)" style="fill: #067854"/>
  <path d="M327.91,194.25V168.44a5.16,5.16,0,0,0-5.16-5.16h-41.3c-.14,0-.26.07-.4.08a59.4,59.4,0,0,0,44.46,35.13,5.41,5.41,0,0,0,.88-.59A5.16,5.16,0,0,0,327.91,194.25Z" transform="translate(-149.68 -81.62)" style="fill: #067854"/>
  <path d="M389.85,132.31h-41.3a5.16,5.16,0,0,0-5.16,5.16v56.78a5.07,5.07,0,0,0,2.38,4.24A59.33,59.33,0,0,0,395,140.06c0-1.17-.11-2.3-.17-3.45A5.11,5.11,0,0,0,389.85,132.31Z" transform="translate(-149.68 -81.62)" style="fill: #067854"/>
  <path d="M248.61,82.84h10.23V195H229.6V145.17L205.78,170.1h-3.2l-23.66-24.93V195H149.68V82.84h10.55L204,131.43Z" transform="translate(-149.68 -81.62)" style="fill: #067854"/>
  <path d="M458.62,146.45h.79L485,83.16h27.48v4.31L465,196.32H452.87l-48-108.85V83.16h27.5Z" transform="translate(-149.68 -81.62)" style="fill: #067854"/>
  <path d="M600.28,108.73h-41.4v15.83h38V150h-38v19.66h42.84V195H530.43V83.16h69.85Z" transform="translate(-149.68 -81.62)" style="fill: #067854"/>
</svg>
